<svg xmlns="http://www.w3.org/2000/svg" width="213" height="64" viewBox="0 0 213 64"><g stroke="#979797" stroke-miterlimit="10" stroke-width="1"><rect width="213" height="64" rx="10" stroke="none"/><rect x="0.5" y="0.5" width="212" height="63" rx="9.5" fill="none"/></g><text transform="translate(68 20)" fill="#fff" font-size="15" font-family="Helvetica"><tspan x="0" y="0" letter-spacing="0.08em">Download on th</tspan><tspan y="0">e</tspan></text><text transform="translate(68 45)" fill="#fff" font-size="29" font-family="Helvetica"><tspan x="0" y="0">App Store</tspan></text><path d="M4.424,36.6C.81,31.4-1.949,21.9,1.762,15.486a10.293,10.293,0,0,1,8.7-5.253c2.717-.049,5.284,1.823,6.944,1.823s4.777-2.249,8.052-1.919a9.832,9.832,0,0,1,7.69,4.15,9.489,9.489,0,0,0-4.539,7.981,9.252,9.252,0,0,0,5.643,8.474A23,23,0,0,1,31.336,36.7c-1.755,2.555-3.57,5.094-6.436,5.147-2.821.053-3.725-1.663-6.944-1.663S13.728,41.8,11.065,41.9l-.144,0C8.224,41.908,6.163,39.1,4.424,36.6ZM17.07,9.659A8.754,8.754,0,0,1,19.3,3.174,9.455,9.455,0,0,1,25.5,0a9.219,9.219,0,0,1-2.19,6.693A7.982,7.982,0,0,1,17.5,9.675Q17.283,9.675,17.07,9.659Z" transform="translate(16.823 11)" fill="#fff"/></svg>